<svg width="38" height="38" viewBox="0 0 38 38" fill="none" xmlns="http://www.w3.org/2000/svg">
<ellipse cx="19" cy="19" rx="19" ry="19" transform="rotate(90 19 19)" fill="white"/>
<path d="M18.3492 20.2835C18.4345 20.3694 18.5358 20.4376 18.6475 20.4841C18.7593 20.5306 18.8791 20.5546 19.0001 20.5546C19.1211 20.5546 19.2409 20.5306 19.3526 20.4841C19.4643 20.4376 19.5657 20.3694 19.6509 20.2835L23.8493 16.076C23.9345 15.99 24.0359 15.9218 24.1476 15.8753C24.2593 15.8288 24.3791 15.8048 24.5001 15.8048C24.6211 15.8048 24.7409 15.8288 24.8526 15.8753C24.9643 15.9218 25.0657 15.99 25.1509 16.076C25.3217 16.2477 25.4175 16.48 25.4175 16.7222C25.4175 16.9644 25.3217 17.1967 25.1509 17.3685L20.9434 21.576C20.4278 22.0909 19.7288 22.3802 19.0001 22.3802C18.2713 22.3802 17.5724 22.0909 17.0567 21.576L12.8492 17.3685C12.6799 17.1977 12.5844 16.9673 12.5834 16.7268C12.5827 16.6062 12.6058 16.4866 12.6514 16.3749C12.6971 16.2632 12.7643 16.1616 12.8492 16.076C12.9345 15.99 13.0358 15.9218 13.1475 15.8753C13.2592 15.8288 13.3791 15.8048 13.5001 15.8048C13.6211 15.8048 13.7409 15.8288 13.8526 15.8753C13.9643 15.9218 14.0657 15.99 14.1509 16.076L18.3492 20.2835Z" fill="#4F2EE8"/>
</svg>
